<svg xmlns="http://www.w3.org/2000/svg" viewBox="0 0 500 500"><g id="freepik--background-complete--inject-18"><rect y="382.4" width="500" height="0.25" style="fill:#ebebeb"></rect><rect x="416.78" y="398.49" width="18.89" height="0.25" style="fill:#ebebeb"></rect><rect x="293.05" y="396.75" width="29.47" height="0.25" style="fill:#ebebeb"></rect><rect x="368.67" y="389.21" width="47.11" height="0.25" style="fill:#ebebeb"></rect><rect x="52.46" y="390.89" width="10.97" height="0.25" style="fill:#ebebeb"></rect><rect x="72.33" y="390.89" width="38.56" height="0.25" style="fill:#ebebeb"></rect><rect x="171" y="395.11" width="54.15" height="0.25" style="fill:#ebebeb"></rect><path d="M237,337.8H43.91a5.71,5.71,0,0,1-5.7-5.71V60.66A5.71,5.71,0,0,1,43.91,55H237a5.71,5.71,0,0,1,5.71,5.71V332.09A5.71,5.71,0,0,1,237,337.8ZM43.91,55.2a5.46,5.46,0,0,0-5.45,5.46V332.09a5.46,5.46,0,0,0,5.45,5.46H237a5.47,5.47,0,0,0,5.46-5.46V60.66A5.47,5.47,0,0,0,237,55.2Z" style="fill:#ebebeb"></path><path d="M453.31,337.8H260.21a5.72,5.72,0,0,1-5.71-5.71V60.66A5.72,5.72,0,0,1,260.21,55h193.1A5.71,5.71,0,0,1,459,60.66V332.09A5.71,5.71,0,0,1,453.31,337.8ZM260.21,55.2a5.47,5.47,0,0,0-5.46,5.46V332.09a5.47,5.47,0,0,0,5.46,5.46h193.1a5.47,5.47,0,0,0,5.46-5.46V60.66a5.47,5.47,0,0,0-5.46-5.46Z" style="fill:#ebebeb"></path><rect x="416.78" y="398.49" width="18.89" height="0.25" style="fill:#ebebeb"></rect><rect x="293.05" y="396.75" width="29.47" height="0.25" style="fill:#ebebeb"></rect><rect x="368.67" y="389.21" width="47.11" height="0.25" style="fill:#ebebeb"></rect><rect x="52.46" y="390.89" width="10.97" height="0.25" style="fill:#ebebeb"></rect><rect x="72.33" y="390.89" width="38.56" height="0.25" style="fill:#ebebeb"></rect><rect x="171" y="395.11" width="54.15" height="0.25" style="fill:#ebebeb"></rect><path d="M100.87,382.41S71.65,356,68.28,328.33c-4.9-40.09,48.34,8.36,64.21-2s-34.23-58,6.42-67.35,50.45,25.75,66.49,51.39c26.29,42,28.06-64.74,72.25-13.52,28.81,33.39,8.55,85.63,8.55,85.63Z" style="fill:#ebebeb"></path><path d="M383.33,382.4c.08-4,2.67-38.48,27.56-55.84-7.56,26.61-5.89,46.61-2.47,55.84Z" style="fill:#f5f5f5"></path><path d="M397.16,382.4c.61-2.65,1.23-21.6,25.87-36.65-9.28,17.47-10.79,30.59-9.52,36.65Z" style="fill:#f5f5f5"></path><path d="M344.68,382.4c0-1.76-1.16-16.75-12-24.31,3.29,11.58,2.56,20.29,1.07,24.31Z" style="fill:#f5f5f5"></path><path d="M338.66,382.4c-.26-1.16-.53-9.4-11.26-15.95,4,7.6,4.7,13.31,4.14,15.95Z" style="fill:#f5f5f5"></path><path d="M272.42,382.4c-.61-2.65-1.23-21.6-25.87-36.65,9.28,17.47,10.79,30.59,9.52,36.65Z" style="fill:#f5f5f5"></path><path d="M132.31,382.4c-.78-2.22-3.18-18.09-25.31-30.69,9.51,14.62,12.08,25.62,11.61,30.69Z" style="fill:#f5f5f5"></path><path d="M124.39,382.4c.18-1.63-.81-13.22,13.18-22.43-4.42,10.69-4.39,18.72-3.17,22.43Z" style="fill:#f5f5f5"></path><path d="M132.08,135.13c-17.81-4.93,8.63-13.23,37.08-12.95,67.2.66,84.45-10,132.25-11.9,14.89-.59,3.44,15.61-31.38,21.47-44.09,7.42-118.86-1.23-100.92,5.39s-2.87,23.19-41.14,16.22c-29.6-5.38-73.2,11.18-56.86-4.08,10.33-9.65,32.55-5,43-5.29S158.42,142.42,132.08,135.13Z" style="fill:#fafafa"></path><path d="M151.64,195.61c6.36,2.51,22.32-2.93,32.46-2.75s25.87,4,34.07-4.17-34.26-3.45-43-2.66C159,187.48,142.33,192,151.64,195.61Z" style="fill:#fafafa"></path><path d="M117.58,88.31c-3.48-2.6-13.07,2.21-18.9,1.75s-14.62-4.57-19.94,3.08,19.49,4.28,24.59,3.77C112.77,96,122.68,92.1,117.58,88.31Z" style="fill:#fafafa"></path><path d="M445.32,140.67c-3.48-2.6-13.07,2.21-18.9,1.75s-14.62-4.57-19.94,3.08,19.49,4.28,24.59,3.77C440.51,148.32,450.42,144.47,445.32,140.67Z" style="fill:#fafafa"></path><path d="M415.33,86.86c-9.1,5.33-34.67,1.06-50.06,3.82S326.82,103,312.42,92.76s51.36-13.59,64.85-14.56C402.29,76.4,428.66,79.05,415.33,86.86Z" style="fill:#fafafa"></path><path d="M306.08,260.89c-18.22-18.36,11.13-146.67,50.61-155s41.81,135.88,27.51,153C368.05,278.22,325.93,280.89,306.08,260.89Z" style="fill:#f5f5f5"></path><path d="M348.69,224h-8.91a841.58,841.58,0,0,0,0,158.4h8.91A841.58,841.58,0,0,1,348.69,224Z" style="fill:#ebebeb"></path><line x1="377.5" y1="227.83" x2="363.22" y2="239.89" style="fill:none;stroke:#fff;stroke-linecap:round;stroke-linejoin:round;stroke-width:7px"></line><line x1="317.67" y1="198.17" x2="324.67" y2="205" style="fill:none;stroke:#fff;stroke-linecap:round;stroke-linejoin:round;stroke-width:7px"></line><line x1="375.73" y1="180.49" x2="366.67" y2="186.83" style="fill:none;stroke:#fff;stroke-linecap:round;stroke-linejoin:round;stroke-width:7px"></line></g><g id="freepik--Shadow--inject-18"><ellipse id="freepik--path--inject-18" cx="250" cy="416.24" rx="193.89" ry="11.32" style="fill:#f5f5f5"></ellipse></g><g id="freepik--Character--inject-18"><polygon points="251.08 408.2 259.11 408.08 260.95 389.46 252.93 389.58 251.08 408.2" style="fill:#ffb573"></polygon><polygon points="129.86 404.87 137.36 407.75 150.82 391.09 143.33 388.21 129.86 404.87" style="fill:#ffb573"></polygon><path d="M140.11,406.54l-8.77-4.35a.7.7,0,0,0-.86.19l-4.59,5.68a1.19,1.19,0,0,0,.42,1.8c2.85,1.35,5,2.21,8.54,4,2.19,1.09,5.87,2.41,13,2.41,3.29,0,3.81-3.33,2.43-3.64-6.19-1.35-8.23-2.57-9.21-5A1.93,1.93,0,0,0,140.11,406.54Z" style="fill:#263238"></path><path d="M259,407.15l-8.77.14a.68.68,0,0,0-.67.56L248.12,415a1.16,1.16,0,0,0,1.18,1.41c3.16-.1,7.73-.36,11.7-.42,4.65-.07,5.64.12,11.09,0,3.3,0,4.16-3.39,2.78-3.67-6.3-1.28-8.41-1.35-13.89-4.61A3.77,3.77,0,0,0,259,407.15Z" style="fill:#263238"></path><path d="M255.36,221.11c.47,5.45,1.05,11.11,1.75,16.6a155.47,155.47,0,0,0,2.76,16.18c.14.66.31,1.28.48,1.91l.26.94.13.47.11.34a16.38,16.38,0,0,0,1.26,2.89,23.65,23.65,0,0,0,2,3c.75,1,1.56,2,2.44,3a74.56,74.56,0,0,0,5.72,5.65c1,.9,2.06,1.81,3.12,2.69s2.18,1.76,3.19,2.56l-2.9,5.28A62.7,62.7,0,0,1,260,273.23a38.27,38.27,0,0,1-6.74-7.07,23.84,23.84,0,0,1-2.67-4.72l-.27-.66-.2-.55-.39-1.11c-.26-.74-.52-1.48-.73-2.21a124.71,124.71,0,0,1-3.92-17.49c-.91-5.84-1.55-11.57-1.89-17.54Z" style="fill:#ffb573"></path><path d="M241.89,216c-4.65,6.1,2.43,30.29,2.43,30.29l17.88-3.76a98.16,98.16,0,0,0-3.51-20.66C255.66,212.12,247,209.28,241.89,216Z" style="fill:#C770F0"></path><path d="M247.56,227.4c2.47,2.39,4.1,11.15,4.35,17.29l-7.58,1.59a123.55,123.55,0,0,1-3.69-17.85C243.37,227.06,246.25,226.14,247.56,227.4Z" style="opacity:0.2"></path><path d="M276.79,276.57l8.79,2.92-4.6,7.9s-7.09-1.37-7.32-7.21Z" style="fill:#ffb573"></path><polygon points="289.19 282.79 283.19 287.74 280.98 287.39 285.58 279.49 289.19 282.79" style="fill:#ffb573"></polygon><path d="M306.21,271.71c5.61-5.65,7.12-10.6,4.05-12.86S299,261,293.35,266.66s-7.28,11.37-3.73,12.76S300.6,277.36,306.21,271.71ZM294.34,267c4.7-4.78,10.87-7.75,13.77-6.64s1.45,5.88-3.25,10.65-10.87,7.74-13.78,6.63S289.63,271.81,294.34,267Z" style="fill:#C770F0"></path><path d="M306.21,271.71c5.61-5.65,7.12-10.6,4.05-12.86S299,261,293.35,266.66s-7.28,11.37-3.73,12.76S300.6,277.36,306.21,271.71ZM294.34,267c4.7-4.78,10.87-7.75,13.77-6.64s1.45,5.88-3.25,10.65-10.87,7.74-13.78,6.63S289.63,271.81,294.34,267Z" style="opacity:0.2"></path><path d="M305.46,271c5.59-5.66,7.32-11.33,3.87-12.64s-10.78,2.21-16.37,7.88-7.32,11.33-3.87,12.65S299.87,276.62,305.46,271ZM294,266.56c4.7-4.77,10.87-7.74,13.78-6.63s1.44,5.88-3.26,10.65-10.87,7.74-13.78,6.63S289.25,271.34,294,266.56Z" style="fill:#C770F0"></path><path d="M293.81,266.51c4.83-4.9,11.16-7.95,14.14-6.81s1.49,6-3.34,10.93-11.16,7.95-14.14,6.81S289,271.41,293.81,266.51Z" style="fill:#C770F0;opacity:0.30000000000000004"></path><path d="M287.92,279.87l-2-2a.77.77,0,0,1,.14-1.13h0a.94.94,0,0,1,1.25,0l2,2a.76.76,0,0,1-.15,1.13h0A1,1,0,0,1,287.92,279.87Z" style="fill:#C770F0"></path><path d="M288.84,278.87A41.21,41.21,0,0,1,286,282c-1,1-2,1.95-3,2.89s-2.09,1.85-3.16,2.75-1.81,2.12-4.13,1.77a2.4,2.4,0,0,1-1.64-1.36,1.42,1.42,0,0,1-.09-.37c-.13-2.11,1.41-2.53,2.43-3.49s2.24-1.69,3.39-2.51,2.33-1.6,3.54-2.36,2.44-1.5,3.75-2.16c.37-.18,1,.08,1.46.59S289,278.62,288.84,278.87Z" style="fill:#C770F0"></path><path d="M285.05,280.23l-3.42-1.71-3.34-.84-2.77,4.12,2.27.56,3.32-1a11.54,11.54,0,0,0,3.29.42C285.33,281.6,285.05,280.23,285.05,280.23Z" style="fill:#ffb573"></path><polygon points="260.95 389.46 260 399.06 251.97 399.19 252.92 389.59 260.95 389.46" style="opacity:0.2"></polygon><polygon points="143.34 388.21 136.87 396.21 143.77 399.82 150.82 391.09 143.34 388.21" style="opacity:0.2"></polygon><path d="M209.62,200.19c-2.79,31.57-16,61.19-17.56,67.59,6,1.81,28.75,8.59,41.14,12.28,21.53-40.68,19.39-66.62,19.39-66.62s-2.38-1.48-5.74-3.17c-1.06-.53-2.2-1.08-3.41-1.62-.66-.3-1.35-.59-2-.87a159.27,159.27,0,0,0-17.49-5.22c-1.12-.27-2.27-.52-3.38-.75s-2.06-.4-3-.56C213.11,200.51,209.62,200.19,209.62,200.19Z" style="fill:#C770F0"></path><path d="M194.86,268.87h-.07a.25.25,0,0,1-.17-.31c0-.06,1.75-6.21,4.06-12.47,4-10.9,8.95-28.38,9.55-36a.25.25,0,0,1,.27-.23.25.25,0,0,1,.23.27c-.6,7.68-5.53,25.22-9.58,36.15-2.31,6.25-4,12.38-4.05,12.44A.26.26,0,0,1,194.86,268.87Z" style="fill:#fff"></path><polygon points="240.64 230.71 242.35 232.88 247.64 232.88 242.06 234.63 240.64 230.71" style="fill:#fff"></polygon><path d="M213.49,215.67c-.33,3-6,15.29-10,17.3,1.14-4.18,2.22-8.58,3.17-13.14Z" style="opacity:0.2"></path><path d="M243.71,208.78l-.27-.13c-.66-.3-1.35-.59-2-.87a159.27,159.27,0,0,0-17.49-5.22c-.86-.21-1.74-.4-2.6-.58l.84,1.54c1.75,3.21,5,9.19,12.83,11.83a11.35,11.35,0,0,0,3.55.66,5,5,0,0,0,4.32-2A6.92,6.92,0,0,0,243.71,208.78Z" style="fill:#fff"></path><path d="M231.52,183.39c-.58,6-2.55,16.59-7.61,19.17,2.15,4,5.1,8.66,11.71,10.89s6.82-2.71,5.78-5.67c-5.83-3.37-4.28-8-1.88-12Z" style="fill:#ffb573"></path><path d="M234.78,188.44l4.74,7.31a19.3,19.3,0,0,0-1.47,2.95c-2.29-1.07-4.8-4.68-4.31-7.27A8.73,8.73,0,0,1,234.78,188.44Z" style="opacity:0.2"></path><path d="M233.38,174.72c-1.81,7.76-3.26,12.21-.58,17.27,4,7.61,14.48,6.93,18.57-.14,3.68-6.35,6-18-.54-23.23A10.86,10.86,0,0,0,233.38,174.72Z" style="fill:#ffb573"></path><path d="M230.05,179.56c4.38,9.52,10.9-5.84,10.26-9.73s-7.21-4-9-2.55S228,175.13,230.05,179.56Z" style="fill:#263238"></path><path d="M237.91,168.75c2.36,2.75,11.22,5.22,13,4.83a6.41,6.41,0,0,1-2.25-3S234.36,161.89,237.91,168.75Z" style="fill:#263238"></path><path d="M246.48,170.76c2.77,2.34,11.92,3.33,13.61,2.66a10.07,10.07,0,0,1-5.12-4.34S241.85,164.57,246.48,170.76Z" style="fill:#263238"></path><path d="M246.75,164.29c3-2.28,8.14-14.73,14.95-21.07,5.45-5.08,10.35-3.2,4.83,4.38s-14.11,14.62-19.24,18.66A18.69,18.69,0,0,1,246.75,164.29Z" style="fill:#C770F0"></path><path d="M254.35,159.18c6.6-6.19,16.81-17.52,11.73-16S247.76,165.37,254.35,159.18Z" style="fill:#fff;opacity:0.5"></path><path d="M233.48,167.13a4.11,4.11,0,0,1,2.17-5.59c9.83-4,16.71,7.42,22.21,5.88,0,0,.75,3.21-3.46,3.12S233.48,167.13,233.48,167.13Z" style="fill:#263238"></path><path d="M233.68,167.16c1.18-1.29-2.82-2.24-5.45-1.95C231.4,166.33,232.42,168.54,233.68,167.16Z" style="fill:#263238"></path><path d="M233.26,167.37c-1.49.92-1.68-3.2-.9-5.73C232.87,165,234.85,166.39,233.26,167.37Z" style="fill:#263238"></path><path d="M248.06,163.36l-1.53-1.11a2.45,2.45,0,0,0-1.55-.47c-8.37.22-14.61,15.07-13.49,18l2.52,1.53C232.85,178.28,238.56,163.05,248.06,163.36Z" style="fill:#C770F0"></path><path d="M242.06,163.67c-.89-3.42,4.1-17.39,3-26.25-.92-7.1-6.67-7.34-7.61,2.16s1.24,19.76,2.68,25.74C240.77,164.83,242.06,163.67,242.06,163.67Z" style="fill:#C770F0"></path><path d="M239.85,156.38c-1.16-8.61-1.3-23.67,2.66-20.25S241,165,239.85,156.38Z" style="fill:#fff;opacity:0.5"></path><path d="M227.79,180.42a7.56,7.56,0,0,0,2.35,5.28c1.94,1.82,4.13.38,4.61-2.09.44-2.22,0-5.84-2.48-6.72S227.75,178,227.79,180.42Z" style="fill:#ffb573"></path><path d="M233.2,280.07l-27-8.08A205.3,205.3,0,0,0,205,294.11c19.43,17.66,44,34.33,51.71,38.58-1.36,13.22-7.35,64.68-7.35,64.68l13.59-.21S278,360,278.29,334.5C278.56,310,233.2,280.07,233.2,280.07Z" style="fill:#263238"></path><path d="M218.86,305.9c-2-1.58-3.91-3.18-5.84-4.81l4.23-17S219.89,296.13,218.86,305.9Z" style="opacity:0.2"></path><path d="M218.86,305.9c-2-1.58-3.91-3.18-5.84-4.81l4.23-17S219.89,296.13,218.86,305.9Z" style="opacity:0.2"></path><path d="M221.51,276.57s-10.11,49.48-22,69.76c-13,22.22-50.42,51.26-50.42,51.26L137,392s24.77-30,38.33-51.11c15.45-24.08,10.1-53.8,16.72-73.12Z" style="fill:#263238"></path><path d="M176,291.8c-1.41,3.43-.12,6.23,2.46,7.3s5.48,0,6.89-3.44.81-7.9-1.77-9S177.4,288.38,176,291.8Z" style="fill:#C770F0"></path><path d="M182.5,292.76c-1.24-.51-1.64.48-2.87,0s-.83-1.5-2.07-2a1.66,1.66,0,0,0-1-.09,9.79,9.79,0,0,1,2.44-2.81c1,.52.7,1.43,1.87,1.91s1.64-.47,2.87,0,.83,1.5,2.07,2l.26.09a9.63,9.63,0,0,1-.48,3.09,1.86,1.86,0,0,1-1-.18C183.33,294.26,183.74,293.27,182.5,292.76Z" style="fill:#fff;opacity:0.30000000000000004"></path><path d="M182,296a12.12,12.12,0,0,0,2.85.69,6.84,6.84,0,0,1-1.16,1.45,7.42,7.42,0,0,1-2.33-.58c-1.92-.79-1.71-1.3-3.64-2.1a7.61,7.61,0,0,0-2.26-.57,5.64,5.64,0,0,1,.11-1.67,11.14,11.14,0,0,1,2.78.68C180.25,294.72,180,295.23,182,296Z" style="opacity:0.1"></path><path d="M167,296.3c2.57,2.66,2.4,5.75.39,7.68s-5.1,2-7.67-.66-3.66-7.05-1.65-9S164.45,293.63,167,296.3Z" style="fill:#C770F0"></path><path d="M167,296.3c2.57,2.66,2.4,5.75.39,7.68s-5.1,2-7.67-.66-3.66-7.05-1.65-9S164.45,293.63,167,296.3Z" style="opacity:0.2"></path><path d="M161.32,299.58c1-.93,1.71-.16,2.67-1.08s.22-1.7,1.18-2.63a1.61,1.61,0,0,1,.89-.45,10.07,10.07,0,0,0-3.3-1.73c-.73.86-.13,1.6-1,2.48s-1.7.16-2.66,1.08-.22,1.7-1.19,2.63a1.57,1.57,0,0,1-.21.17,10.07,10.07,0,0,0,1.58,2.7,1.92,1.92,0,0,0,.9-.54C161.1,301.28,160.36,300.51,161.32,299.58Z" style="fill:#C770F0;opacity:0.30000000000000004"></path><path d="M163,302.42a11.6,11.6,0,0,1-2.4,1.69,7.19,7.19,0,0,0,1.61.93,7.34,7.34,0,0,0,2-1.4c1.5-1.44,1.12-1.84,2.62-3.29a7.75,7.75,0,0,1,1.89-1.36,5.9,5.9,0,0,0-.71-1.51,11,11,0,0,0-2.34,1.65C164.14,300.57,164.52,301,163,302.42Z" style="opacity:0.1"></path><path d="M166.75,296.37c.3,3.69,2.73,5.6,5.51,5.37s4.87-2.5,4.57-6.2-2.88-7.4-5.66-7.17S166.45,292.68,166.75,296.37Z" style="fill:#C770F0"></path><path d="M172.69,298a1.93,1.93,0,0,0,.57,2.56c.78.32,1.77-.29,2.23-1.37a1.9,1.9,0,0,0-.56-2.55C174.15,296.27,173.15,296.87,172.69,298Z" style="fill:#fff;opacity:0.30000000000000004"></path><path d="M174.77,290.3a9.66,9.66,0,0,1,1.83,3.78h0a.93.93,0,0,1-.27.12c-.8.25-1.73-.47-2.08-1.58A2.12,2.12,0,0,1,174.77,290.3Z" style="fill:#fff;opacity:0.30000000000000004"></path><path d="M167.24,297.87c.69-.54,2,0,2.87,1.1a2.74,2.74,0,0,1,.65,2.68,5,5,0,0,1-3.69-3.6A.73.73,0,0,1,167.24,297.87Z" style="fill:#fff;opacity:0.30000000000000004"></path><path d="M167.36,292.91a.79.79,0,0,1-.23-.14,7.83,7.83,0,0,1,1.44-2.87h0a1.47,1.47,0,0,1,.47,1.94C168.71,292.67,168,293.16,167.36,292.91Z" style="fill:#fff;opacity:0.30000000000000004"></path><path d="M168.87,295.34c0,1.11.57,2,1.36,2.07s1.48-.85,1.53-2-.57-2-1.37-2.07S168.91,294.22,168.87,295.34Z" style="fill:#fff;opacity:0.30000000000000004"></path><path d="M173,290.58c.18.72,0,1.4-.52,1.52s-1-.36-1.19-1.07,0-1.4.52-1.52S172.76,289.87,173,290.58Z" style="fill:#fff;opacity:0.30000000000000004"></path><path d="M171.34,324.82l22.14-9.2a3.38,3.38,0,0,0,2-3.82l-3.38-16-33.85,14.08,9,13.68A3.37,3.37,0,0,0,171.34,324.82Z" style="fill:#C770F0"></path><path d="M171.48,313.49a19.64,19.64,0,0,1-18.13-12.08h0a19.61,19.61,0,1,1,18.13,12.08ZM154.27,301a18.6,18.6,0,1,0,0-14.24,18.62,18.62,0,0,0,0,14.24Z" style="fill:#C770F0"></path><path d="M164.92,276.79a1.65,1.65,0,0,1-1-.3c-1.17-.82-.81-3-.31-4.63a21.45,21.45,0,0,1,2.84-5.83c2.45-3.47,5.7-5.09,7.56-3.78h0c1.83,1.3,1.37,4.89-1.08,8.36a21.66,21.66,0,0,1-4.55,4.62A6.76,6.76,0,0,1,164.92,276.79Zm7.59-14c-1.36,0-3.42,1.24-5.23,3.81a20.66,20.66,0,0,0-2.71,5.54c-.65,2.18-.44,3.26-.07,3.53s1.47.1,3.3-1.25a20.48,20.48,0,0,0,4.32-4.4c2-2.9,2.65-6,1.32-7A1.55,1.55,0,0,0,172.51,262.8Z" style="fill:#C770F0"></path><path d="M159.85,278.08h0a21.39,21.39,0,0,1-6.4-1.05c-4-1.35-6.52-4-5.81-6.1h0c.73-2.16,4.31-2.77,8.34-1.41a21.54,21.54,0,0,1,5.73,3c1.39,1,2.94,2.57,2.49,3.92S161.58,278.08,159.85,278.08Zm-11.29-6.83c-.51,1.53,1.81,3.7,5.18,4.84a20.58,20.58,0,0,0,6.08,1c2.25,0,3.26-.5,3.4-.94s-.32-1.43-2.14-2.8a20.94,20.94,0,0,0-5.45-2.88c-3.78-1.26-6.61-.58-7.07.79Z" style="fill:#C770F0"></path><path d="M165,277.46a.49.49,0,0,1-.42-.23,4,4,0,0,1-.55-2,.52.52,0,0,1,.5-.49.51.51,0,0,1,.5.51,3,3,0,0,0,.39,1.41.5.5,0,0,1-.15.69A.52.52,0,0,1,165,277.46Z" style="fill:#C770F0"></path><path d="M168.53,281.81a.5.5,0,0,1-.5-.48,6.52,6.52,0,0,0-3.71-5.59.5.5,0,1,1,.4-.92A7.53,7.53,0,0,1,169,281.3a.49.49,0,0,1-.48.51Z" style="fill:#C770F0"></path><path d="M166.92,284.63a.53.53,0,0,1-.34-.13,12.18,12.18,0,0,1-4.19-8.55.51.51,0,0,1,.5-.49h0a.5.5,0,0,1,.49.51,11.34,11.34,0,0,0,3.87,7.79.51.51,0,0,1,0,.71A.54.54,0,0,1,166.92,284.63Z" style="fill:#C770F0"></path><path d="M164.76,277.51a4,4,0,0,1-2.21-1.19.5.5,0,0,1,.68-.73c.58.55,1.37,1,1.57.91a.5.5,0,0,1,.38.93A1.16,1.16,0,0,1,164.76,277.51Z" style="fill:#C770F0"></path><polygon points="192.51 297.71 193.01 300.09 160.65 313.55 159.32 311.51 192.51 297.71" style="opacity:0.2"></polygon><path d="M166.41,317c3.86-1.61,2.32-5.3,6.17-6.9s5.4,2.09,9.25.49,2.31-5.3,6.17-6.9c2.53-1.06,4.06.17,5.9.69l1,4.6c-1.41-.53-2.79-1.15-4.82-.31-3.85,1.6-2.31,5.29-6.17,6.9s-5.39-2.09-9.25-.49-2.31,5.3-6.16,6.9a5.15,5.15,0,0,1-2.05.41L163,317.15A4.91,4.91,0,0,0,166.41,317Z" style="fill:#fff;opacity:0.2"></path><path d="M160.85,312.17l31.06-12.91a4.2,4.2,0,0,0,2.25-5.47h0a4.2,4.2,0,0,0-5.47-2.26l-31.05,12.92a4.19,4.19,0,0,0-2.26,5.47h0A4.19,4.19,0,0,0,160.85,312.17Z" style="fill:#C770F0"></path><path d="M187,291.53c1.26-.64,6.16-2.35,7.74,1.38s-6.49,4.14-9,4-3.68,6.14-11.45,8.77-9.26.09-13,2.21-5.58,4.79-6.38,2.23-.26-6.05,3.78-6.91,8.66-4.49,12.14-5.39A105.49,105.49,0,0,0,187,291.53Z" style="fill:#C770F0"></path><path d="M187,291.53c1.26-.64,6.16-2.35,7.74,1.38s-6.49,4.14-9,4-3.68,6.14-11.45,8.77-9.26.09-13,2.21-5.58,4.79-6.38,2.23-.26-6.05,3.78-6.91,8.66-4.49,12.14-5.39A105.49,105.49,0,0,0,187,291.53Z" style="opacity:0.2"></path><polygon points="149.01 400.09 135.41 392.95 137.81 388.38 153.17 396.05 149.01 400.09" style="fill:#C770F0"></polygon><polygon points="264.69 397.45 248.5 397.7 248.41 392.47 266.51 391.91 264.69 397.45" style="fill:#C770F0"></polygon><path d="M244.3,180.3c-.19.62,0,1.22.4,1.34s.88-.28,1.07-.9,0-1.22-.4-1.34S244.48,179.68,244.3,180.3Z" style="fill:#263238"></path><path d="M251.31,182.39c-.18.62,0,1.22.4,1.35s.89-.29,1.07-.91,0-1.22-.4-1.34S251.5,181.77,251.31,182.39Z" style="fill:#263238"></path><path d="M249,182a23.07,23.07,0,0,0,1.38,6.19,3.76,3.76,0,0,1-3.13-.33Z" style="fill:#ed893e"></path><path d="M244.13,188.78a5.37,5.37,0,0,1-2.9-3.08.19.19,0,1,1,.37-.11,5.13,5.13,0,0,0,3.43,3.12.19.19,0,0,1,.13.23.19.19,0,0,1-.24.13A5.63,5.63,0,0,1,244.13,188.78Z" style="fill:#263238"></path><path d="M243.65,175.92a.44.44,0,0,1-.15-.12.38.38,0,0,1,.08-.54,3.75,3.75,0,0,1,3.41-.61.38.38,0,0,1,.23.49.39.39,0,0,1-.49.22h0a3,3,0,0,0-2.7.52A.4.4,0,0,1,243.65,175.92Z" style="fill:#263238"></path><path d="M255.88,180.91a.41.41,0,0,1-.34-.13,3,3,0,0,0-2.52-1.1.39.39,0,0,1-.42-.33.38.38,0,0,1,.32-.43,3.81,3.81,0,0,1,3.2,1.36.39.39,0,0,1,0,.54A.4.4,0,0,1,255.88,180.91Z" style="fill:#263238"></path><path d="M141.86,409a9.52,9.52,0,0,1-1.75-1.19.19.19,0,0,1-.06-.2.18.18,0,0,1,.16-.13c.35,0,3.37-.31,4,.49a.59.59,0,0,1,.06.63,1.17,1.17,0,0,1-.8.72A2.47,2.47,0,0,1,141.86,409Zm-1.14-1.18c1.1.85,2.06,1.27,2.62,1.13a.79.79,0,0,0,.54-.5.25.25,0,0,0,0-.25C143.56,407.75,141.93,407.71,140.72,407.79Z" style="fill:#C770F0"></path><path d="M140.15,407.8a.14.14,0,0,1-.08-.07.17.17,0,0,1,0-.19c.05-.09,1.25-2.08,2.42-2.35a1,1,0,0,1,.84.15h0a.62.62,0,0,1,.32.71c-.25.88-2.47,1.74-3.41,1.77A.1.1,0,0,1,140.15,407.8Zm2.89-2.19a.65.65,0,0,0-.46,0c-.75.17-1.58,1.26-2,1.83,1-.2,2.53-.93,2.67-1.45,0-.05.05-.16-.16-.3h0Z" style="fill:#C770F0"></path><path d="M259.84,408.25a.24.24,0,0,1-.13-.16.2.2,0,0,1,.1-.19c.36-.2,3.56-1.88,4.55-1.35a.59.59,0,0,1,.32.5h0a1.09,1.09,0,0,1-.34.93c-.87.79-3.18.51-4.47.27Zm4.27-1.4c-.61-.2-2.35.5-3.61,1.12,1.77.27,3.09.17,3.58-.27a.72.72,0,0,0,.22-.62.22.22,0,0,0-.12-.2Z" style="fill:#C770F0"></path><path d="M259.84,408.25l0,0a.21.21,0,0,1-.08-.17c0-.09.19-2.26,1.2-3.11a1.37,1.37,0,0,1,1-.34h0c.52,0,.68.3.72.52.16.9-1.74,2.67-2.7,3.12A.22.22,0,0,1,259.84,408.25Zm2.28-3.24a.84.84,0,0,0-.19,0h0a1,1,0,0,0-.77.25,4.38,4.38,0,0,0-1,2.49c1-.61,2.26-2,2.16-2.54C262.3,405.15,262.28,405.06,262.12,405Zm-.18-.22h0Z" style="fill:#C770F0"></path><path d="M214.24,213l-12.1,11.88-6,6-2.93,3-1.44,1.52-.72.75-.58.66a30.28,30.28,0,0,0-6.31,13.09,53.87,53.87,0,0,0-1.27,7.84c-.12,1.34-.22,2.69-.26,4,0,.68,0,1.36,0,2s0,1.39,0,1.95l-5.92,1.12a41.53,41.53,0,0,1-1-4.57c-.25-1.51-.46-3-.59-4.56a51.87,51.87,0,0,1,.07-9.32,42.3,42.3,0,0,1,2-9.44,33.17,33.17,0,0,1,4.7-9l.77-1,.69-.87,1.4-1.73c.93-1.14,1.88-2.27,2.84-3.37,1.92-2.22,3.87-4.41,5.87-6.54,4-4.28,8.06-8.36,12.4-12.35Z" style="fill:#ffb573"></path><path d="M209.62,200.2c-7.66-.47-23.24,20.16-23.24,20.16l13.19,13s9.4-9.26,15.69-16.92C222.12,208.06,218.9,200.76,209.62,200.2Z" style="fill:#C770F0"></path><path d="M182.46,264.54l1.5,8-9.13-.33s-.29-6.09,2.07-8.16Z" style="fill:#ffb573"></path><polygon points="182.05 280.45 173.71 276.48 174.83 272.22 183.96 272.55 182.05 280.45" style="fill:#ffb573"></polygon></g><g id="freepik--rock-with-egg--inject-18"><path d="M400.48,416.1S402.77,395.39,416,378c-9.79,6.49-21.9,27.7-20.84,38.15Z" style="fill:#C770F0"></path><path d="M404.11,416.1s.25-14.9,13.81-28c-9.8,4.42-20.66,19.6-19.13,28Z" style="fill:#C770F0"></path><path d="M392.7,416.1s5.18-14.9,1.64-28c4.35,4.42,5.49,19.6,1.59,28Z" style="fill:#C770F0"></path><polygon points="377.69 418.02 297.22 418.02 304.42 393.88 315.73 386.9 324.47 376.64 363.81 368.4 376.66 379.48 391.06 386.9 392.86 397.36 404.17 409.18 407.51 418.24 377.69 418.02" style="fill:#C770F0"></polygon><polygon points="377.69 418.02 297.22 418.02 304.42 393.88 315.73 386.9 324.47 376.64 363.81 368.4 376.66 379.48 391.06 386.9 392.86 397.36 404.17 409.18 407.51 418.24 377.69 418.02" style="fill:#fff;opacity:0.6000000000000001"></polygon><polygon points="315.73 386.9 327.71 385.1 337.51 386.9 328.56 382.96 318.68 383.44 315.73 386.9" style="fill:#C770F0;opacity:0.2"></polygon><polygon points="376.66 379.48 367.79 380.33 359.05 379.48 369.56 382.96 380.71 381.57 376.66 379.48" style="fill:#C770F0;opacity:0.2"></polygon><polygon points="348.88 398.38 374.11 399.49 387.19 398.38 374.68 402.97 348.88 398.38" style="fill:#C770F0;opacity:0.2"></polygon><path d="M345,407.43c-4.21.63-6.22,3.56-5.74,6.73s3.24,5.39,7.46,4.76,8.26-3.86,7.79-7S349.2,406.8,345,407.43Z" style="fill:#C770F0"></path><path d="M345,407.43c-4.21.63-6.22,3.56-5.74,6.73s3.24,5.39,7.46,4.76,8.26-3.86,7.79-7S349.2,406.8,345,407.43Z" style="fill:#fff;opacity:0.9"></path><path d="M343.62,414.37c-1.27-.45-2.56-.07-2.88.84s.46,2,1.73,2.46,2.57.06,2.88-.85S344.9,414.81,343.62,414.37Z" style="fill:#C770F0"></path><path d="M352.56,416.17a11.1,11.1,0,0,1-4.2,2.38h0a1.43,1.43,0,0,1-.16-.3c-.34-.9.41-2,1.66-2.5A2.4,2.4,0,0,1,352.56,416.17Z" style="fill:#C770F0"></path><path d="M343.3,408.1c.67.75.2,2.26-1,3.38a3.15,3.15,0,0,1-3,.95,5.69,5.69,0,0,1,3.84-4.5A.54.54,0,0,1,343.3,408.1Z" style="fill:#C770F0"></path><path d="M349,407.87a.92.92,0,0,1,.14-.28,9.17,9.17,0,0,1,3.4,1.43v0a1.67,1.67,0,0,1-2.18.68C349.38,409.39,348.77,408.57,349,407.87Z" style="fill:#C770F0"></path><ellipse cx="346.38" cy="411.44" rx="2.32" ry="1.66" transform="translate(-11.08 9.59) rotate(-1.56)" style="fill:#C770F0"></ellipse><path d="M352.1,414.1c-.81.26-1.61,0-1.78-.49s.33-1.18,1.14-1.44,1.6-.05,1.78.48S352.9,413.83,352.1,414.1Z" style="fill:#C770F0"></path><path d="M315.39,419s2.11-21.45-6.37-39.51c7.58,6.71,14.29,28.69,11.22,39.51Z" style="fill:#C770F0"></path><path d="M312.09,419s2.79-15.44-6.89-29c8,4.58,14.8,20.3,11.73,29Z" style="fill:#C770F0"></path><path d="M322.46,419s-1.69-15.44,4.16-29c-4.84,4.58-8.95,20.31-7.09,29Z" style="fill:#C770F0"></path><path d="M387.51,419a21.14,21.14,0,0,1,6.69-15.62c-6.15,2.66-12.32,11.34-10.43,15.62Z" style="fill:#C770F0"></path><path d="M382.06,419a13.65,13.65,0,0,0-1.92-11.45c3.53,1.81,6,8,4.18,11.45Z" style="fill:#C770F0"></path></g></svg>